<?xml version="1.0" encoding="UTF-8" standalone="no"?>
<svg
   xmlns:dc="http://purl.org/dc/elements/1.1/"
   xmlns:cc="http://creativecommons.org/ns#"
   xmlns:rdf="http://www.w3.org/1999/02/22-rdf-syntax-ns#"
   xmlns:svg="http://www.w3.org/2000/svg"
   xmlns="http://www.w3.org/2000/svg"
   xmlns:sodipodi="http://sodipodi.sourceforge.net/DTD/sodipodi-0.dtd"
   xmlns:inkscape="http://www.inkscape.org/namespaces/inkscape"
   viewBox="0 0 24 24"
   fill="black"
   width="18px"
   height="18px"
   version="1.1"
   id="svg6"
   sodipodi:docname="annotation-80.svg"
   inkscape:version="0.92.3 (2405546, 2018-03-11)">
  <metadata
     id="metadata12">
    <rdf:RDF>
      <cc:Work
         rdf:about="">
        <dc:format>image/svg+xml</dc:format>
        <dc:type
           rdf:resource="http://purl.org/dc/dcmitype/StillImage" />
        <dc:title></dc:title>
      </cc:Work>
    </rdf:RDF>
  </metadata>
  <defs
     id="defs10" />
  <sodipodi:namedview
     pagecolor="#ffffff"
     bordercolor="#666666"
     borderopacity="1"
     objecttolerance="10"
     gridtolerance="10"
     guidetolerance="10"
     inkscape:pageopacity="0"
     inkscape:pageshadow="2"
     inkscape:window-width="1429"
     inkscape:window-height="1003"
     id="namedview8"
     showgrid="false"
     inkscape:zoom="44.147569"
     inkscape:cx="9"
     inkscape:cy="9"
     inkscape:window-x="0"
     inkscape:window-y="28"
     inkscape:window-maximized="0"
     inkscape:current-layer="svg6" />
  <path
     d="M0 0h24v24H0V0z"
     fill="none"
     id="path2" />
  <path
     d="M3 17.25V21h3.75L17.81 9.94l-3.75-3.75L3 17.25zM5.92 19H5v-.92l9.06-9.06.92.92L5.92 19zM20.71 5.63l-2.34-2.34c-.2-.2-.45-.29-.71-.29s-.51.1-.7.29l-1.83 1.83 3.75 3.75 1.83-1.83c.39-.39.39-1.02 0-1.41z"
     id="path4" />
  <path
     style="fill:#333333;fill-opacity:1;stroke-width:0;stroke-miterlimit:4;stroke-dasharray:none"
     d="M 2.2680326,14.337757 V 12.939015 L 6.4076041,8.79949 10.547176,4.6599649 11.945826,6.0587511 13.344475,7.4575373 9.2049488,11.597017 5.0654224,15.736498 H 3.6667274 2.2680326 Z M 7.8401257,10.855269 11.248963,7.4463759 10.909632,7.1064785 C 10.723,6.9195353 10.559994,6.7665815 10.547395,6.7665815 c -0.0126,0 -1.5493333,1.526402 -3.4149667,3.3920045 l -3.392061,3.392004 v 0.356787 0.356786 h 0.3454606 0.3454606 z"
     id="path822"
     inkscape:connector-curvature="0"
     transform="scale(1.3333333)" />
  <path
     style="fill:#333333;fill-opacity:1;stroke-width:0;stroke-miterlimit:4;stroke-dasharray:none"
     d="M 12.755618,5.2376504 11.362733,3.844627 12.087474,3.1190206 c 0.83385,-0.8348466 0.852753,-0.848735 1.155115,-0.8487049 0.329546,3.28e-5 0.315969,-0.0104 1.408997,1.0826285 1.08669,1.0866899 1.081044,1.0793905 1.081044,1.3976712 0,0.3076056 -0.02068,0.3360915 -0.842574,1.1606057 -0.394442,0.3956988 -0.722654,0.7194525 -0.72936,0.7194525 -0.0067,0 -0.638991,-0.6268605 -1.405078,-1.3930232 z"
     id="path824"
     inkscape:connector-curvature="0"
     transform="scale(1.3333333)" />
</svg>
